<?xml version="1.0" encoding="UTF-8"?>
<!-- Generated by Pixelmator Pro 3.7.1 -->
<svg width="1000" height="1000" viewBox="0 0 1000 1000" xmlns="http://www.w3.org/2000/svg">
    <g id="Group">
        <path id="Shape" fill="#000000" fill-rule="evenodd" stroke="none" d="M 711.581055 574.151611 L 711.581055 400.227356 L 875.744202 398.452637 L 876.631592 397.565247 L 876.631592 290.193665 L 711.581055 290.193665 L 711.581055 233.4021 L 712.468445 232.514709 L 775.471558 232.514709 L 776.358948 231.62738 L 776.358948 120.706299 L 775.471558 119.81897 L 560.728394 119.81897 L 559.841064 118.93158 L 558.953674 118.93158 L 542.093689 102.071594 L 541.206299 102.071594 L 524.346313 85.211609 L 523.458923 85.211609 L 517.247375 79 L 516.359985 79 L 509.261047 86.098938 L 508.373688 86.098938 L 500.38736 94.085266 L 499.5 94.085266 L 491.513672 102.071594 L 490.626312 102.071594 L 485.302094 107.395813 L 484.414734 107.395813 L 479.090515 112.719971 L 478.203156 112.719971 L 471.104218 119.81897 L 471.104218 230.73999 L 471.991577 231.62738 L 599.772644 231.62738 L 600.659973 232.514709 L 600.659973 574.151611 L 601.547363 575.03894 L 710.693665 575.03894 L 711.581055 574.151611 L 711.581055 573.264221 Z"/>
        <path id="path1" fill="#000000" fill-rule="evenodd" stroke="none" d="M 574.03894 290.193665 L 400.114746 290.193665 L 400.114746 122.481079 L 290.081055 122.481079 L 290.081055 290.193665 L 122.368423 290.193665 L 122.368423 457.906311 L 78.887367 501.38736 L 78 501.885132 L 78.887367 502.27475 L 122.368423 546.643188 L 122.368423 709.918945 L 289.193695 709.918945 L 289.193695 878.518921 L 441.821045 878.518921 L 484.414734 921.11261 L 485.68573 922 L 487.076843 921.11261 L 530.557922 877.631592 L 530.557922 768.485229 L 399.227356 768.485229 L 399.227356 425.073669 L 289.193695 425.073669 L 289.193695 567.940002 L 289.193695 600.772644 L 232.4021 600.772644 L 232.4021 399.340027 L 574.03894 399.340027 Z"/>
        <path id="path2" fill="#000000" fill-rule="evenodd" stroke="none" d="M 602.434753 877.631592 L 601.547363 876.744202 L 601.547363 736.540039 L 602.434753 735.652588 L 602.434753 709.918945 L 426.735779 709.918945 L 425.848419 710.806274 L 425.848419 600.772644 L 766.5979 600.772644 L 767.485291 599.885254 L 767.485291 530.670532 L 766.5979 529.783203 L 766.5979 472.991577 L 767.485291 472.104187 L 876.631592 472.104187 L 920.11261 515.585266 L 921.88739 515.585266 L 921 515.585266 L 884.61792 551.967407 L 884.61792 552.854736 L 877.518921 559.953674 L 877.518921 709.031616 L 876.631592 709.918945 L 712.468445 709.918945 L 711.581055 710.806274 L 711.581055 876.744202 L 710.693665 877.631592 L 709.806335 877.631592 L 709.798218 877.631592 L 709.783569 877.631592 L 709.76355 877.631592 L 709.739075 877.631592 L 709.710938 877.631592 L 709.679871 877.631592 L 709.646362 877.631592 L 709.610962 877.631592 L 709.573853 877.631592 L 709.535461 877.631592 L 709.495972 877.631592 L 709.455566 877.631592 L 709.41449 877.631592 L 709.372803 877.631592 L 709.330627 877.631592 L 709.288025 877.631592 L 709.245117 877.631592 L 709.201965 877.631592 L 709.158569 877.631592 L 709.11499 877.631592 L 709.071289 877.631592 L 709.027405 877.631592 L 708.983521 877.631592 L 708.939514 877.631592 L 708.895447 877.631592 L 708.851318 877.631592 L 708.80719 877.631592 L 708.762939 877.631592 L 708.718689 877.631592 L 708.674438 877.631592 L 708.630188 877.631592 L 708.585876 877.631592 L 708.541565 877.631592 L 708.497253 877.631592 L 708.452881 877.631592 L 708.408569 877.631592 L 708.364258 877.631592 L 708.319885 877.631592 L 708.275513 877.631592 L 708.23114 877.631592 L 708.186829 877.631592 L 708.142456 877.631592 L 708.098083 877.631592 L 708.053711 877.631592 L 708.009399 877.631592 L 707.965027 877.631592 L 707.920654 877.631592 L 707.876282 877.631592 L 707.831909 877.631592 L 707.787537 877.631592 L 707.743164 877.631592 L 707.698792 877.631592 L 707.65448 877.631592 L 707.610107 877.631592 L 707.565674 877.631592 L 707.521301 877.631592 L 707.47699 877.631592 L 707.432617 877.631592 L 707.388245 877.631592 L 707.343872 877.631592 L 707.2995 877.631592 L 707.255127 877.631592 L 707.210754 877.631592 L 707.166443 877.631592 L 707.122009 877.631592 L 707.077637 877.631592 L 707.033264 877.631592 L 706.988953 877.631592 L 706.94458 877.631592 L 706.900146 877.631592 L 706.855835 877.631592 L 706.811462 877.631592 L 706.76709 877.631592 L 706.722717 877.631592 L 706.678345 877.631592 L 706.633972 877.631592 L 706.5896 877.631592 L 706.545227 877.631592 L 706.500916 877.631592 L 706.456482 877.631592 L 706.412109 877.631592 L 706.367737 877.631592 L 706.323425 877.631592 L 706.279053 877.631592 L 706.234619 877.631592 L 706.190308 877.631592 L 706.145935 877.631592 L 706.101563 877.631592 L 706.05719 877.631592 L 706.012817 877.631592 L 705.968445 877.631592 L 705.924072 877.631592 L 705.8797 877.631592 L 705.835388 877.631592 L 705.790955 877.631592 L 705.746582 877.631592 L 705.702209 877.631592 L 705.657898 877.631592 L 705.613525 877.631592 L 705.569092 877.631592 L 705.52478 877.631592 L 705.480408 877.631592 L 705.436035 877.631592 L 705.391663 877.631592 L 705.34729 877.631592 L 705.302917 877.631592 L 705.258545 877.631592 L 705.214172 877.631592 L 705.169861 877.631592 L 705.125427 877.631592 L 705.081055 877.631592 L 705.036682 877.631592 L 704.992371 877.631592 L 704.947998 877.631592 L 704.903564 877.631592 L 704.859253 877.631592 L 704.81488 877.631592 L 704.770508 877.631592 L 704.726135 877.631592 L 704.681763 877.631592 L 704.63739 877.631592 L 704.593018 877.631592 L 704.548645 877.631592 L 704.504333 877.631592 L 704.4599 877.631592 L 704.415527 877.631592 L 704.371155 877.631592 L 704.326843 877.631592 L 704.282471 877.631592 L 704.238037 877.631592 L 704.193726 877.631592 L 704.149353 877.631592 L 704.10498 877.631592 L 704.060608 877.631592 L 704.016235 877.631592 L 703.971863 877.631592 L 703.92749 877.631592 L 703.883118 877.631592 L 703.838806 877.631592 L 703.794373 877.631592 L 703.75 877.631592 L 703.705627 877.631592 L 703.661316 877.631592 L 703.616943 877.631592 L 703.57251 877.631592 L 703.528198 877.631592 L 703.483826 877.631592 L 703.439453 877.631592 L 703.395081 877.631592 L 703.350708 877.631592 L 703.306335 877.631592 L 703.261963 877.631592 L 703.21759 877.631592 L 703.173279 877.631592 L 703.128845 877.631592 L 703.084473 877.631592 L 703.040161 877.631592 L 702.995789 877.631592 L 702.951416 877.631592 L 702.906982 877.631592 L 702.862671 877.631592 L 702.818298 877.631592 L 702.773926 877.631592 L 702.729553 877.631592 L 702.685181 877.631592 L 702.640808 877.631592 L 702.596436 877.631592 L 702.552063 877.631592 L 702.507751 877.631592 L 702.463318 877.631592 L 702.418945 877.631592 L 702.374634 877.631592 L 702.330261 877.631592 L 702.285889 877.631592 L 702.241455 877.631592 L 702.197144 877.631592 L 702.152771 877.631592 L 702.108398 877.631592 L 702.064026 877.631592 L 702.019653 877.631592 L 701.975281 877.631592 L 701.930908 877.631592 L 701.886536 877.631592 L 701.842224 877.631592 L 701.797791 877.631592 L 701.753418 877.631592 L 701.709106 877.631592 L 701.664734 877.631592 L 701.620361 877.631592 L 701.575928 877.631592 L 701.531616 877.631592 L 701.487244 877.631592 L 701.442871 877.631592 L 701.398499 877.631592 L 701.354126 877.631592 L 701.309753 877.631592 L 701.265381 877.631592 L 701.221008 877.631592 L 701.176697 877.631592 L 701.132263 877.631592 L 701.087891 877.631592 L 701.043579 877.631592 L 700.999207 877.631592 L 700.954834 877.631592 L 700.9104 877.631592 L 700.866089 877.631592 L 700.821716 877.631592 L 700.777344 877.631592 L 700.732971 877.631592 L 700.688599 877.631592 L 700.644226 877.631592 L 700.599854 877.631592 L 700.555481 877.631592 L 700.511169 877.631592 L 700.466736 877.631592 L 700.422363 877.631592 L 700.378052 877.631592 L 700.333679 877.631592 L 700.289307 877.631592 L 700.244873 877.631592 L 700.200562 877.631592 L 700.156189 877.631592 L 700.111816 877.631592 L 700.067444 877.631592 L 700.023071 877.631592 L 699.978699 877.631592 L 699.934326 877.631592 L 699.890015 877.631592 L 699.845642 877.631592 L 699.801208 877.631592 L 699.756836 877.631592 L 699.712524 877.631592 L 699.668152 877.631592 L 699.623779 877.631592 L 699.579346 877.631592 L 699.535034 877.631592 L 699.490662 877.631592 L 699.446289 877.631592 L 699.401917 877.631592 L 699.357544 877.631592 L 699.313171 877.631592 L 699.268799 877.631592 L 699.224487 877.631592 L 699.180115 877.631592 L 699.135681 877.631592 L 699.091309 877.631592 L 699.046997 877.631592 L 699.002625 877.631592 L 698.958252 877.631592 L 698.913818 877.631592 L 698.869507 877.631592 L 698.825134 877.631592 L 698.780762 877.631592 L 698.736389 877.631592 L 698.692017 877.631592 L 698.647644 877.631592 L 698.603271 877.631592 L 698.55896 877.631592 L 698.514587 877.631592 L 698.470154 877.631592 L 698.425781 877.631592 L 698.38147 877.631592 L 698.337097 877.631592 L 698.292725 877.631592 L 698.248291 877.631592 L 698.203979 877.631592 L 698.159607 877.631592 L 698.115234 877.631592 L 698.070862 877.631592 L 698.026489 877.631592 L 697.982117 877.631592 L 697.937744 877.631592 L 697.893433 877.631592 L 697.84906 877.631592 L 697.804626 877.631592 L 697.760254 877.631592 L 697.715942 877.631592 L 697.67157 877.631592 L 697.627197 877.631592 L 697.582764 877.631592 L 697.538452 877.631592 L 697.49408 877.631592 L 697.449707 877.631592 L 697.405334 877.631592 L 697.360962 877.631592 L 697.316589 877.631592 L 697.272217 877.631592 L 697.227905 877.631592 L 697.183533 877.631592 L 697.139099 877.631592 L 697.094727 877.631592 L 697.050415 877.631592 L 697.006042 877.631592 L 696.96167 877.631592 L 696.917297 877.631592 L 696.872925 877.631592 L 696.828552 877.631592 L 696.78418 877.631592 L 696.739807 877.631592 L 696.695435 877.631592 L 696.651062 877.631592 L 696.606689 877.631592 L 696.562378 877.631592 L 696.518005 877.631592 L 696.473572 877.631592 L 696.429199 877.631592 L 696.384888 877.631592 L 696.340515 877.631592 L 696.296143 877.631592 L 696.25177 877.631592 L 696.207397 877.631592 L 696.163025 877.631592 L 696.118652 877.631592 L 696.074341 877.631592 L 696.029907 877.631592 L 695.985535 877.631592 L 695.941162 877.631592 L 695.896851 877.631592 L 695.852478 877.631592 L 695.808044 877.631592 L 695.763672 877.631592 L 695.71936 877.631592 L 695.674988 877.631592 L 695.630615 877.631592 L 695.586243 877.631592 L 695.54187 877.631592 L 695.497498 877.631592 L 695.453125 877.631592 L 695.408813 877.631592 L 695.36438 877.631592 L 695.320007 877.631592 L 695.275635 877.631592 L 695.231323 877.631592 L 695.186951 877.631592 L 695.142517 877.631592 L 695.098145 877.631592 L 695.053833 877.631592 L 695.00946 877.631592 L 694.965088 877.631592 L 694.920715 877.631592 L 694.876343 877.631592 L 694.83197 877.631592 L 694.787598 877.631592 L 694.743286 877.631592 L 694.698853 877.631592 L 694.65448 877.631592 L 694.610107 877.631592 L 694.565796 877.631592 L 694.521423 877.631592 L 694.47699 877.631592 L 694.432617 877.631592 L 694.388306 877.631592 L 694.343933 877.631592 L 694.299561 877.631592 L 694.255188 877.631592 L 694.210815 877.631592 L 694.166443 877.631592 L 694.12207 877.631592 L 694.077759 877.631592 L 694.033325 877.631592 L 693.988953 877.631592 L 693.94458 877.631592 L 693.900269 877.631592 L 693.855896 877.631592 L 693.811462 877.631592 L 693.767151 877.631592 L 693.722778 877.631592 L 693.678406 877.631592 L 693.634033 877.631592 L 693.589661 877.631592 L 693.545288 877.631592 L 693.500916 877.631592 L 693.456543 877.631592 L 693.412231 877.631592 L 693.367798 877.631592 L 693.323425 877.631592 L 693.279053 877.631592 L 693.234741 877.631592 L 693.190369 877.631592 L 693.145935 877.631592 L 693.101624 877.631592 L 693.057251 877.631592 L 693.012878 877.631592 L 692.968506 877.631592 L 692.924133 877.631592 L 692.879761 877.631592 L 692.835388 877.631592 L 692.791016 877.631592 L 692.746704 877.631592 L 692.702271 877.631592 L 692.657898 877.631592 L 692.613525 877.631592 L 692.569214 877.631592 L 692.524841 877.631592 L 692.480408 877.631592 L 692.436096 877.631592 L 692.391724 877.631592 L 692.347351 877.631592 L 692.302979 877.631592 L 692.258606 877.631592 L 692.214233 877.631592 L 692.169861 877.631592 L 692.125488 877.631592 L 692.081177 877.631592 L 692.036743 877.631592 L 691.992371 877.631592 L 691.947998 877.631592 L 691.903687 877.631592 L 691.859314 877.631592 L 691.81488 877.631592 L 691.770569 877.631592 L 691.726196 877.631592 L 691.681824 877.631592 L 691.637451 877.631592 L 691.593079 877.631592 L 691.548706 877.631592 L 691.504333 877.631592 L 691.459961 877.631592 L 691.415649 877.631592 L 691.371216 877.631592 L 691.326843 877.631592 L 691.282471 877.631592 L 691.238159 877.631592 L 691.193787 877.631592 L 691.149353 877.631592 L 691.105042 877.631592 L 691.060669 877.631592 L 691.016296 877.631592 L 690.971924 877.631592 L 690.927551 877.631592 L 690.883179 877.631592 L 690.838806 877.631592 L 690.794434 877.631592 L 690.750122 877.631592 L 690.705688 877.631592 L 690.661316 877.631592 L 690.616943 877.631592 L 690.572632 877.631592 L 690.528259 877.631592 L 690.483826 877.631592 L 690.439514 877.631592 L 690.395142 877.631592 L 690.350769 877.631592 L 690.306396 877.631592 L 690.262024 877.631592 L 690.217651 877.631592 L 690.173279 877.631592 L 690.128906 877.631592 L 690.084595 877.631592 L 690.040161 877.631592 L 689.995789 877.631592 L 689.951477 877.631592 L 689.907104 877.631592 L 689.862732 877.631592 L 689.818298 877.631592 L 689.773987 877.631592 L 689.729614 877.631592 L 689.685242 877.631592 L 689.640869 877.631592 L 689.596497 877.631592 L 689.552124 877.631592 L 689.507751 877.631592 L 689.463379 877.631592 L 689.419067 877.631592 L 689.374634 877.631592 L 689.330261 877.631592 L 689.28595 877.631592 L 689.241577 877.631592 L 689.197205 877.631592 L 689.152771 877.631592 L 689.108459 877.631592 L 689.064087 877.631592 L 689.019714 877.631592 L 688.975342 877.631592 L 688.930969 877.631592 L 688.886597 877.631592 L 688.842224 877.631592 L 688.797852 877.631592 L 688.75354 877.631592 L 688.709106 877.631592 L 688.664734 877.631592 L 688.620422 877.631592 L 688.57605 877.631592 L 688.531677 877.631592 L 688.487244 877.631592 L 688.442932 877.631592 L 688.39856 877.631592 L 688.354187 877.631592 L 688.309814 877.631592 L 688.265442 877.631592 L 688.221069 877.631592 L 688.176697 877.631592 L 688.132324 877.631592 L 688.088013 877.631592 L 688.043579 877.631592 L 687.999207 877.631592 L 687.954895 877.631592 L 687.910522 877.631592 L 687.86615 877.631592 L 687.821716 877.631592 L 687.777405 877.631592 L 687.733032 877.631592 L 687.68866 877.631592 L 687.644287 877.631592 L 687.599915 877.631592 L 687.555542 877.631592 L 687.511169 877.631592 L 687.466797 877.631592 L 687.422485 877.631592 L 687.378052 877.631592 L 687.333679 877.631592 L 687.289368 877.631592 L 687.244995 877.631592 L 687.200623 877.631592 L 687.156189 877.631592 L 687.111877 877.631592 L 687.067505 877.631592 L 687.023132 877.631592 L 686.97876 877.631592 L 686.934387 877.631592 L 686.890015 877.631592 L 686.845642 877.631592 L 686.801331 877.631592 L 686.756958 877.631592 L 686.712524 877.631592 L 686.668152 877.631592 L 686.62384 877.631592 L 686.579468 877.631592 L 686.535095 877.631592 L 686.490662 877.631592 L 686.44635 877.631592 L 686.401978 877.631592 L 686.357605 877.631592 L 686.313232 877.631592 L 686.26886 877.631592 L 686.224487 877.631592 L 686.180115 877.631592 L 686.135803 877.631592 L 686.091431 877.631592 L 686.046997 877.631592 L 686.002625 877.631592 L 685.958313 877.631592 L 685.91394 877.631592 L 685.869568 877.631592 L 685.825134 877.631592 L 685.780823 877.631592 L 685.73645 877.631592 L 685.692078 877.631592 L 685.647705 877.631592 L 685.603333 877.631592 L 685.55896 877.631592 L 685.514587 877.631592 L 685.470276 877.631592 L 685.425903 877.631592 L 685.38147 877.631592 L 685.337097 877.631592 L 685.292786 877.631592 L 685.248413 877.631592 L 685.204041 877.631592 L 685.159607 877.631592 L 685.115295 877.631592 L 685.070923 877.631592 L 685.02655 877.631592 L 684.982178 877.631592 L 684.937805 877.631592 L 684.893433 877.631592 L 684.84906 877.631592 L 684.804749 877.631592 L 684.760376 877.631592 L 684.715942 877.631592 L 684.67157 877.631592 L 684.627258 877.631592 L 684.582886 877.631592 L 684.538513 877.631592 L 684.49408 877.631592 L 684.449768 877.631592 L 684.405396 877.631592 L 684.361023 877.631592 L 684.31665 877.631592 L 684.272278 877.631592 L 684.227905 877.631592 L 684.183533 877.631592 L 684.139221 877.631592 L 684.094849 877.631592 L 684.050415 877.631592 L 684.006042 877.631592 L 683.961731 877.631592 L 683.917358 877.631592 L 683.872986 877.631592 L 683.828613 877.631592 L 683.784241 877.631592 L 683.739868 877.631592 L 683.695496 877.631592 L 683.651123 877.631592 L 683.60675 877.631592 L 683.562378 877.631592 L 683.518005 877.631592 L 683.473694 877.631592 L 683.429321 877.631592 L 683.384888 877.631592 L 683.340515 877.631592 L 683.296204 877.631592 L 683.251831 877.631592 L 683.207458 877.631592 L 683.163086 877.631592 L 683.118713 877.631592 L 683.074341 877.631592 L 683.029968 877.631592 L 682.985657 877.631592 L 682.941223 877.631592 L 682.896851 877.631592 L 682.852478 877.631592 L 682.808167 877.631592 L 682.763794 877.631592 L 682.71936 877.631592 L 682.674988 877.631592 L 682.630676 877.631592 L 682.586304 877.631592 L 682.541931 877.631592 L 682.497559 877.631592 L 682.453186 877.631592 L 682.408813 877.631592 L 682.364441 877.631592 L 682.320129 877.631592 L 682.275696 877.631592 L 682.231323 877.631592 L 682.186951 877.631592 L 682.142639 877.631592 L 682.098267 877.631592 L 682.053833 877.631592 L 682.00946 877.631592 L 681.965149 877.631592 L 681.920776 877.631592 L 681.876404 877.631592 L 681.832031 877.631592 L 681.787659 877.631592 L 681.743286 877.631592 L 681.698914 877.631592 L 681.654602 877.631592 L 681.610168 877.631592 L 681.565796 877.631592 L 681.521423 877.631592 L 681.477112 877.631592 L 681.432739 877.631592 L 681.388306 877.631592 L 681.343933 877.631592 L 681.299622 877.631592 L 681.255249 877.631592 L 681.210876 877.631592 L 681.166504 877.631592 L 681.122131 877.631592 L 681.077759 877.631592 L 681.033386 877.631592 L 680.989075 877.631592 L 680.944641 877.631592 L 680.900269 877.631592 L 680.855896 877.631592 L 680.811584 877.631592 L 680.767212 877.631592 L 680.722778 877.631592 L 680.678467 877.631592 L 680.634094 877.631592 L 680.589722 877.631592 L 680.545349 877.631592 L 680.500977 877.631592 L 680.456604 877.631592 L 680.412231 877.631592 L 680.367859 877.631592 L 680.323547 877.631592 L 680.279114 877.631592 L 680.234741 877.631592 L 680.190369 877.631592 L 680.146057 877.631592 L 680.101685 877.631592 L 680.057251 877.631592 L 680.012939 877.631592 L 679.968567 877.631592 L 679.924194 877.631592 L 679.879822 877.631592 L 679.835449 877.631592 L 679.791077 877.631592 L 679.746704 877.631592 L 679.702332 877.631592 L 679.65802 877.631592 L 679.613586 877.631592 L 679.569214 877.631592 L 679.524841 877.631592 L 679.48053 877.631592 L 679.436157 877.631592 L 679.391724 877.631592 L 679.347412 877.631592 L 679.30304 877.631592 L 679.258667 877.631592 L 679.214294 877.631592 L 679.169922 877.631592 L 679.125549 877.631592 L 679.081177 877.631592 L 679.036804 877.631592 L 678.992493 877.631592 L 678.948059 877.631592 L 678.903687 877.631592 L 678.859314 877.631592 L 678.815002 877.631592 L 678.77063 877.631592 L 678.726196 877.631592 L 678.681885 877.631592 L 678.637512 877.631592 L 678.59314 877.631592 L 678.548767 877.631592 L 678.504395 877.631592 L 678.460022 877.631592 L 678.415649 877.631592 L 678.371277 877.631592 L 678.326965 877.631592 L 678.282532 877.631592 L 678.238159 877.631592 L 678.193787 877.631592 L 678.149475 877.631592 L 678.105103 877.631592 L 678.060669 877.631592 L 678.016357 877.631592 L 677.971985 877.631592 L 677.927612 877.631592 L 677.88324 877.631592 L 677.838867 877.631592 L 677.794495 877.631592 L 677.750122 877.631592 L 677.70575 877.631592 L 677.661438 877.631592 L 677.617004 877.631592 L 677.572632 877.631592 L 677.528259 877.631592 L 677.483948 877.631592 L 677.439575 877.631592 L 677.395142 877.631592 L 677.35083 877.631592 L 677.306458 877.631592 L 677.262085 877.631592 L 677.217712 877.631592 L 677.17334 877.631592 L 677.128967 877.631592 L 677.084595 877.631592 L 677.040222 877.631592 L 676.995911 877.631592 L 676.951477 877.631592 L 676.907104 877.631592 L 676.862793 877.631592 L 676.81842 877.631592 L 676.774048 877.631592 L 676.729614 877.631592 L 676.685303 877.631592 L 676.64093 877.631592 L 676.596558 877.631592 L 676.552185 877.631592 L 676.507813 877.631592 L 676.46344 877.631592 L 676.419067 877.631592 L 676.374695 877.631592 L 676.330383 877.631592 L 676.28595 877.631592 L 676.241577 877.631592 L 676.197266 877.631592 L 676.152893 877.631592 L 676.108521 877.631592 L 676.064087 877.631592 L 676.019775 877.631592 L 675.975403 877.631592 L 675.93103 877.631592 L 675.886658 877.631592 L 675.842285 877.631592 L 675.797913 877.631592 L 675.75354 877.631592 L 675.709167 877.631592 L 675.664856 877.631592 L 675.620422 877.631592 L 675.57605 877.631592 L 675.531738 877.631592 L 675.487366 877.631592 L 675.442993 877.631592 L 675.39856 877.631592 L 675.354248 877.631592 L 675.309875 877.631592 L 675.265503 877.631592 L 675.22113 877.631592 L 675.176758 877.631592 L 675.132385 877.631592 L 675.088013 877.631592 L 675.04364 877.631592 L 674.999329 877.631592 L 674.954895 877.631592 L 674.910522 877.631592 L 674.866211 877.631592 L 674.821838 877.631592 L 674.777466 877.631592 L 674.733032 877.631592 L 674.688721 877.631592 L 674.644348 877.631592 L 674.599976 877.631592 L 674.555603 877.631592 L 674.51123 877.631592 L 674.466858 877.631592 L 674.422485 877.631592 L 674.378113 877.631592 L 674.333801 877.631592 L 674.289368 877.631592 L 674.244995 877.631592 L 674.200684 877.631592 L 674.156311 877.631592 L 674.111938 877.631592 L 674.067505 877.631592 L 674.023193 877.631592 L 673.978821 877.631592 L 673.934448 877.631592 L 673.890076 877.631592 L 673.845703 877.631592 L 673.801331 877.631592 L 673.756958 877.631592 L 673.712646 877.631592 L 673.668274 877.631592 L 673.62384 877.631592 L 673.579468 877.631592 L 673.535156 877.631592 L 673.490784 877.631592 L 673.446411 877.631592 L 673.401978 877.631592 L 673.357666 877.631592 L 673.313293 877.631592 L 673.268921 877.631592 L 673.224548 877.631592 L 673.180176 877.631592 L 673.135803 877.631592 L 673.091431 877.631592 L 673.047119 877.631592 L 673.002747 877.631592 L 672.958313 877.631592 L 672.91394 877.631592 L 672.869629 877.631592 L 672.825256 877.631592 L 672.780884 877.631592 L 672.73645 877.631592 L 672.692139 877.631592 L 672.647766 877.631592 L 672.603394 877.631592 L 672.559021 877.631592 L 672.514648 877.631592 L 672.470276 877.631592 L 672.425903 877.631592 L 672.381592 877.631592 L 672.337219 877.631592 L 672.292786 877.631592 L 672.248413 877.631592 L 672.204102 877.631592 L 672.159729 877.631592 L 672.115356 877.631592 L 672.070923 877.631592 L 672.026611 877.631592 L 671.982239 877.631592 L 671.937866 877.631592 L 671.893494 877.631592 L 671.849121 877.631592 L 671.804749 877.631592 L 671.760376 877.631592 L 671.716064 877.631592 L 671.671692 877.631592 L 671.627258 877.631592 L 671.582886 877.631592 L 671.538574 877.631592 L 671.494202 877.631592 L 671.449829 877.631592 L 671.405396 877.631592 L 671.361084 877.631592 L 671.316711 877.631592 L 671.272339 877.631592 L 671.227966 877.631592 L 671.183594 877.631592 L 671.139221 877.631592 L 671.094849 877.631592 L 671.050537 877.631592 L 671.006165 877.631592 L 670.961731 877.631592 L 670.917358 877.631592 L 670.873047 877.631592 L 670.828674 877.631592 L 670.784302 877.631592 L 670.739929 877.631592 L 670.695557 877.631592 L 670.651184 877.631592 L 670.606812 877.631592 L 670.562439 877.631592 L 670.518066 877.631592 L 670.473694 877.631592 L 670.429321 877.631592 L 670.38501 877.631592 L 670.340637 877.631592 L 670.296204 877.631592 L 670.251831 877.631592 L 670.20752 877.631592 L 670.163147 877.631592 L 670.118774 877.631592 L 670.074402 877.631592 L 670.030029 877.631592 L 669.985657 877.631592 L 669.941284 877.631592 L 669.896973 877.631592 L 669.852539 877.631592 L 669.808167 877.631592 L 669.763794 877.631592 L 669.719482 877.631592 L 669.67511 877.631592 L 669.630676 877.631592 L 669.586304 877.631592 L 669.541992 877.631592 L 669.49762 877.631592 L 669.453247 877.631592 L 669.408875 877.631592 L 669.364502 877.631592 L 669.320129 877.631592 L 669.275757 877.631592 L 669.231445 877.631592 L 669.187012 877.631592 L 669.142639 877.631592 L 669.098267 877.631592 L 669.053955 877.631592 L 669.009583 877.631592 L 668.965149 877.631592 L 668.920776 877.631592 L 668.876465 877.631592 L 668.832092 877.631592 L 668.78772 877.631592 L 668.743347 877.631592 L 668.698975 877.631592 L 668.654602 877.631592 L 668.610229 877.631592 L 668.565918 877.631592 L 668.521484 877.631592 L 668.477112 877.631592 L 668.432739 877.631592 L 668.388428 877.631592 L 668.344055 877.631592 L 668.299622 877.631592 L 668.255249 877.631592 L 668.210938 877.631592 L 668.166565 877.631592 L 668.122192 877.631592 L 668.07782 877.631592 L 668.033447 877.631592 L 667.989075 877.631592 L 667.944702 877.631592 L 667.900391 877.631592 L 667.855957 877.631592 L 667.811584 877.631592 L 667.767212 877.631592 L 667.7229 877.631592 L 667.678528 877.631592 L 667.634094 877.631592 L 667.589783 877.631592 L 667.54541 877.631592 L 667.501038 877.631592 L 667.456665 877.631592 L 667.412292 877.631592 L 667.36792 877.631592 L 667.323547 877.631592 L 667.279175 877.631592 L 667.234863 877.631592 L 667.19043 877.631592 L 667.146057 877.631592 L 667.101685 877.631592 L 667.057373 877.631592 L 667.013 877.631592 L 666.968567 877.631592 L 666.924255 877.631592 L 666.879883 877.631592 L 666.83551 877.631592 L 666.791138 877.631592 L 666.746765 877.631592 L 666.702393 877.631592 L 666.65802 877.631592 L 666.613647 877.631592 L 666.569336 877.631592 L 666.524902 877.631592 L 666.48053 877.631592 L 666.436157 877.631592 L 666.391846 877.631592 L 666.347473 877.631592 L 666.30304 877.631592 L 666.258728 877.631592 L 666.214355 877.631592 L 666.169983 877.631592 L 666.12561 877.631592 L 666.081238 877.631592 L 666.036865 877.631592 L 665.992493 877.631592 L 665.94812 877.631592 L 665.903809 877.631592 L 665.859375 877.631592 L 665.815002 877.631592 L 665.77063 877.631592 L 665.726318 877.631592 L 665.681946 877.631592 L 665.637512 877.631592 L 665.593201 877.631592 L 665.548828 877.631592 L 665.504456 877.631592 L 665.460083 877.631592 L 665.41571 877.631592 L 665.371338 877.631592 L 665.326965 877.631592 L 665.282593 877.631592 L 665.238281 877.631592 L 665.193848 877.631592 L 665.149475 877.631592 L 665.105103 877.631592 L 665.060791 877.631592 L 665.016418 877.631592 L 664.971985 877.631592 L 664.927673 877.631592 L 664.883301 877.631592 L 664.838928 877.631592 L 664.794556 877.631592 L 664.750183 877.631592 L 664.705811 877.631592 L 664.661438 877.631592 L 664.617065 877.631592 L 664.572754 877.631592 L 664.52832 877.631592 L 664.483948 877.631592 L 664.439575 877.631592 L 664.395264 877.631592 L 664.350891 877.631592 L 664.306458 877.631592 L 664.262146 877.631592 L 664.217773 877.631592 L 664.173401 877.631592 L 664.129028 877.631592 L 664.084656 877.631592 L 664.040283 877.631592 L 663.995911 877.631592 L 663.951538 877.631592 L 663.907227 877.631592 L 663.862793 877.631592 L 663.81842 877.631592 L 663.774109 877.631592 L 663.729736 877.631592 L 663.685364 877.631592 L 663.64093 877.631592 L 663.596619 877.631592 L 663.552246 877.631592 L 663.507874 877.631592 L 663.463501 877.631592 L 663.419128 877.631592 L 663.374756 877.631592 L 663.330383 877.631592 L 663.286011 877.631592 L 663.241699 877.631592 L 663.197266 877.631592 L 663.152893 877.631592 L 663.108582 877.631592 L 663.064209 877.631592 L 663.019836 877.631592 L 662.975403 877.631592 L 662.931091 877.631592 L 662.886719 877.631592 L 662.842346 877.631592 L 662.797974 877.631592 L 662.753601 877.631592 L 662.709229 877.631592 L 662.664856 877.631592 L 662.620483 877.631592 L 662.576172 877.631592 L 662.531738 877.631592 L 662.487366 877.631592 L 662.443054 877.631592 L 662.398682 877.631592 L 662.354309 877.631592 L 662.309875 877.631592 L 662.265564 877.631592 L 662.221191 877.631592 L 662.176819 877.631592 L 662.132446 877.631592 L 662.088074 877.631592 L 662.043701 877.631592 L 661.999329 877.631592 L 661.954956 877.631592 L 661.910645 877.631592 L 661.866211 877.631592 L 661.821838 877.631592 L 661.777527 877.631592 L 661.733154 877.631592 L 661.688782 877.631592 L 661.644348 877.631592 L 661.600037 877.631592 L 661.555664 877.631592 L 661.511292 877.631592 L 661.466919 877.631592 L 661.422546 877.631592 L 661.378174 877.631592 L 661.333801 877.631592 L 661.289429 877.631592 L 661.245117 877.631592 L 661.200684 877.631592 L 661.156311 877.631592 L 661.112 877.631592 L 661.067627 877.631592 L 661.023254 877.631592 L 660.978821 877.631592 L 660.934509 877.631592 L 660.890137 877.631592 L 660.845764 877.631592 L 660.801392 877.631592 L 660.757019 877.631592 L 660.712646 877.631592 L 660.668274 877.631592 L 660.623962 877.631592 L 660.57959 877.631592 L 660.535156 877.631592 L 660.490784 877.631592 L 660.446472 877.631592 L 660.4021 877.631592 L 660.357727 877.631592 L 660.313293 877.631592 L 660.268982 877.631592 L 660.224609 877.631592 L 660.180237 877.631592 L 660.135864 877.631592 L 660.091492 877.631592 L 660.047119 877.631592 L 660.002747 877.631592 L 659.958435 877.631592 L 659.914063 877.631592 L 659.869629 877.631592 L 659.825256 877.631592 L 659.780945 877.631592 L 659.736572 877.631592 L 659.6922 877.631592 L 659.647766 877.631592 L 659.603455 877.631592 L 659.559082 877.631592 L 659.514709 877.631592 L 659.470337 877.631592 L 659.425964 877.631592 L 659.381592 877.631592 L 659.337219 877.631592 L 659.292908 877.631592 L 659.248535 877.631592 L 659.204102 877.631592 L 659.159729 877.631592 L 659.115417 877.631592 L 659.071045 877.631592 L 659.026672 877.631592 L 658.982239 877.631592 L 658.937927 877.631592 L 658.893555 877.631592 L 658.849182 877.631592 L 658.80481 877.631592 L 658.760437 877.631592 L 658.716064 877.631592 L 658.671692 877.631592 L 658.62738 877.631592 L 658.583008 877.631592 L 658.538574 877.631592 L 658.494202 877.631592 L 658.44989 877.631592 L 658.405518 877.631592 L 658.361145 877.631592 L 658.316711 877.631592 L 658.2724 877.631592 L 658.228027 877.631592 L 658.183655 877.631592 L 658.139282 877.631592 L 658.09491 877.631592 L 658.050537 877.631592 L 658.006165 877.631592 L 657.961853 877.631592 L 657.91748 877.631592 L 657.873047 877.631592 L 657.828674 877.631592 L 657.784363 877.631592 L 657.73999 877.631592 L 657.695618 877.631592 L 657.651245 877.631592 L 657.606873 877.631592 L 657.5625 877.631592 L 657.518127 877.631592 L 657.473755 877.631592 L 657.429382 877.631592 L 657.38501 877.631592 L 657.340637 877.631592 L 657.296326 877.631592 L 657.251953 877.631592 L 657.20752 877.631592 L 657.163147 877.631592 L 657.118835 877.631592 L 657.074463 877.631592 L 657.03009 877.631592 L 656.985718 877.631592 L 656.941345 877.631592 L 656.896973 877.631592 L 656.8526 877.631592 L 656.808289 877.631592 L 656.763855 877.631592 L 656.719482 877.631592 L 656.67511 877.631592 L 656.630798 877.631592 L 656.586426 877.631592 L 656.541992 877.631592 L 656.49762 877.631592 L 656.453308 877.631592 L 656.408936 877.631592 L 656.364563 877.631592 L 656.32019 877.631592 L 656.275818 877.631592 L 656.231445 877.631592 L 656.187073 877.631592 L 656.142761 877.631592 L 656.098328 877.631592 L 656.053955 877.631592 L 656.009583 877.631592 L 655.965271 877.631592 L 655.920898 877.631592 L 655.876465 877.631592 L 655.832092 877.631592 L 655.787781 877.631592 L 655.743408 877.631592 L 655.699036 877.631592 L 655.654663 877.631592 L 655.610291 877.631592 L 655.565918 877.631592 L 655.521545 877.631592 L 655.477234 877.631592 L 655.4328 877.631592 L 655.388428 877.631592 L 655.344055 877.631592 L 655.299744 877.631592 L 655.255371 877.631592 L 655.210938 877.631592 L 655.166565 877.631592 L 655.122253 877.631592 L 655.077881 877.631592 L 655.033508 877.631592 L 654.989136 877.631592 L 654.944763 877.631592 L 654.900391 877.631592 L 654.856018 877.631592 L 654.811707 877.631592 L 654.767273 877.631592 L 654.7229 877.631592 L 654.678528 877.631592 L 654.634216 877.631592 L 654.589844 877.631592 L 654.54541 877.631592 L 654.501099 877.631592 L 654.456726 877.631592 L 654.412354 877.631592 L 654.367981 877.631592 L 654.323608 877.631592 L 654.279236 877.631592 L 654.234863 877.631592 L 654.190491 877.631592 L 654.146179 877.631592 L 654.101746 877.631592 L 654.057373 877.631592 L 654.013 877.631592 L 653.968689 877.631592 L 653.924316 877.631592 L 653.879883 877.631592 L 653.835571 877.631592 L 653.791199 877.631592 L 653.746826 877.631592 L 653.702454 877.631592 L 653.658081 877.631592 L 653.613708 877.631592 L 653.569336 877.631592 L 653.524963 877.631592 L 653.480652 877.631592 L 653.436218 877.631592 L 653.391846 877.631592 L 653.347473 877.631592 L 653.303162 877.631592 L 653.258789 877.631592 L 653.214355 877.631592 L 653.170044 877.631592 L 653.125671 877.631592 L 653.081299 877.631592 L 653.036926 877.631592 L 652.992554 877.631592 L 652.948181 877.631592 L 652.903809 877.631592 L 652.859436 877.631592 L 652.815125 877.631592 L 652.770691 877.631592 L 652.726318 877.631592 L 652.681946 877.631592 L 652.637634 877.631592 L 652.593262 877.631592 L 652.548828 877.631592 L 652.504517 877.631592 L 652.460144 877.631592 L 652.415771 877.631592 L 652.371399 877.631592 L 652.327026 877.631592 L 652.282654 877.631592 L 652.238281 877.631592 L 652.193909 877.631592 L 652.149597 877.631592 L 652.105164 877.631592 L 652.060791 877.631592 L 652.016418 877.631592 L 651.972107 877.631592 L 651.927734 877.631592 L 651.883301 877.631592 L 651.838989 877.631592 L 651.794617 877.631592 L 651.750244 877.631592 L 651.705872 877.631592 L 651.661499 877.631592 L 651.617126 877.631592 L 651.572754 877.631592 L 651.528381 877.631592 L 651.48407 877.631592 L 651.439636 877.631592 L 651.395264 877.631592 L 651.350891 877.631592 L 651.30658 877.631592 L 651.262207 877.631592 L 651.217773 877.631592 L 651.173462 877.631592 L 651.129089 877.631592 L 651.084717 877.631592 L 651.040344 877.631592 L 650.995972 877.631592 L 650.951599 877.631592 L 650.907227 877.631592 L 650.862854 877.631592 L 650.818542 877.631592 L 650.774109 877.631592 L 650.729736 877.631592 L 650.685425 877.631592 L 650.641052 877.631592 L 650.59668 877.631592 L 650.552246 877.631592 L 650.507935 877.631592 L 650.463562 877.631592 L 650.419189 877.631592 L 650.374817 877.631592 L 650.330444 877.631592 L 650.286072 877.631592 L 650.241699 877.631592 L 650.197327 877.631592 L 650.153015 877.631592 L 650.108582 877.631592 L 650.064209 877.631592 L 650.019897 877.631592 L 649.975525 877.631592 L 649.931152 877.631592 L 649.886719 877.631592 L 649.842407 877.631592 L 649.798035 877.631592 L 649.753662 877.631592 L 649.70929 877.631592 L 649.664917 877.631592 L 649.620544 877.631592 L 649.576172 877.631592 L 649.531799 877.631592 L 649.487488 877.631592 L 649.443054 877.631592 L 649.398682 877.631592 L 649.35437 877.631592 L 649.309998 877.631592 L 649.265625 877.631592 L 649.221191 877.631592 L 649.17688 877.631592 L 649.132507 877.631592 L 649.088135 877.631592 L 649.043762 877.631592 L 648.99939 877.631592 L 648.955017 877.631592 L 648.910645 877.631592 L 648.866272 877.631592 L 648.82196 877.631592 L 648.777527 877.631592 L 648.733154 877.631592 L 648.688843 877.631592 L 648.64447 877.631592 L 648.600098 877.631592 L 648.555664 877.631592 L 648.511353 877.631592 L 648.46698 877.631592 L 648.422607 877.631592 L 648.378235 877.631592 L 648.333862 877.631592 L 648.28949 877.631592 L 648.245117 877.631592 L 648.200745 877.631592 L 648.156433 877.631592 L 648.112 877.631592 L 648.067627 877.631592 L 648.023315 877.631592 L 647.978943 877.631592 L 647.93457 877.631592 L 647.890137 877.631592 L 647.845825 877.631592 L 647.801453 877.631592 L 647.75708 877.631592 L 647.712708 877.631592 L 647.668335 877.631592 L 647.623962 877.631592 L 647.57959 877.631592 L 647.535217 877.631592 L 647.490906 877.631592 L 647.446472 877.631592 L 647.4021 877.631592 L 647.357788 877.631592 L 647.313416 877.631592 L 647.269043 877.631592 L 647.224609 877.631592 L 647.180298 877.631592 L 647.135925 877.631592 L 647.091553 877.631592 L 647.04718 877.631592 L 647.002808 877.631592 L 646.958435 877.631592 L 646.914063 877.631592 L 646.869751 877.631592 L 646.825378 877.631592 L 646.780945 877.631592 L 646.736572 877.631592 L 646.692261 877.631592 L 646.647888 877.631592 L 646.603516 877.631592 L 646.559082 877.631592 L 646.514771 877.631592 L 646.470398 877.631592 L 646.426025 877.631592 L 646.381653 877.631592 L 646.33728 877.631592 L 646.292908 877.631592 L 646.248535 877.631592 L 646.204224 877.631592 L 646.159851 877.631592 L 646.115417 877.631592 L 646.071045 877.631592 L 646.026733 877.631592 L 645.982361 877.631592 L 645.937988 877.631592 L 645.893555 877.631592 L 645.849243 877.631592 L 645.804871 877.631592 L 645.760498 877.631592 L 645.716125 877.631592 L 645.671753 877.631592 L 645.62738 877.631592 L 645.583008 877.631592 L 645.538696 877.631592 L 645.494324 877.631592 L 645.44989 877.631592 L 645.405518 877.631592 L 645.361206 877.631592 L 645.316833 877.631592 L 645.272461 877.631592 L 645.228027 877.631592 L 645.183716 877.631592 L 645.139343 877.631592 L 645.094971 877.631592 L 645.050598 877.631592 L 645.006226 877.631592 L 644.961853 877.631592 L 644.91748 877.631592 L 644.873169 877.631592 L 644.828796 877.631592 L 644.784363 877.631592 L 644.73999 877.631592 L 644.695679 877.631592 L 644.651306 877.631592 L 644.606934 877.631592 L 644.562561 877.631592 L 644.518188 877.631592 L 644.473816 877.631592 L 644.429443 877.631592 L 644.385071 877.631592 L 644.340698 877.631592 L 644.296326 877.631592 L 644.251953 877.631592 L 644.207642 877.631592 L 644.163269 877.631592 L 644.118835 877.631592 L 644.074463 877.631592 L 644.030151 877.631592 L 643.985779 877.631592 L 643.941406 877.631592 L 643.897034 877.631592 L 643.852661 877.631592 L 643.808289 877.631592 L 643.763916 877.631592 L 643.719604 877.631592 L 643.675171 877.631592 L 643.630798 877.631592 L 643.586426 877.631592 L 643.542114 877.631592 L 643.497742 877.631592 L 643.453308 877.631592 L 643.408936 877.631592 L 643.364624 877.631592 L 643.320251 877.631592 L 643.275879 877.631592 L 643.231506 877.631592 L 643.187134 877.631592 L 643.142761 877.631592 L 643.098389 877.631592 L 643.054077 877.631592 L 643.009644 877.631592 L 642.965271 877.631592 L 642.920898 877.631592 L 642.876587 877.631592 L 642.832214 877.631592 L 642.787781 877.631592 L 642.743408 877.631592 L 642.699097 877.631592 L 642.654724 877.631592 L 642.610352 877.631592 L 642.565979 877.631592 L 642.521606 877.631592 L 642.477234 877.631592 L 642.432861 877.631592 L 642.38855 877.631592 L 642.344116 877.631592 L 642.299744 877.631592 L 642.255371 877.631592 L 642.21106 877.631592 L 642.166687 877.631592 L 642.122253 877.631592 L 642.077881 877.631592 L 642.033569 877.631592 L 641.989197 877.631592 L 641.944824 877.631592 L 641.900452 877.631592 L 641.856079 877.631592 L 641.811707 877.631592 L 641.767334 877.631592 L 641.723022 877.631592 L 641.678589 877.631592 L 641.634216 877.631592 L 641.589844 877.631592 L 641.545532 877.631592 L 641.50116 877.631592 L 641.456726 877.631592 L 641.412354 877.631592 L 641.368042 877.631592 L 641.323669 877.631592 L 641.279297 877.631592 L 641.234924 877.631592 L 641.190552 877.631592 L 641.146179 877.631592 L 641.101807 877.631592 L 641.057495 877.631592 L 641.013062 877.631592 L 640.968689 877.631592 L 640.924316 877.631592 L 640.880005 877.631592 L 640.835632 877.631592 L 640.791199 877.631592 L 640.746887 877.631592 L 640.702515 877.631592 L 640.658142 877.631592 L 640.61377 877.631592 L 640.569397 877.631592 L 640.525024 877.631592 L 640.480652 877.631592 L 640.436279 877.631592 L 640.391968 877.631592 L 640.347534 877.631592 L 640.303162 877.631592 L 640.258789 877.631592 L 640.214478 877.631592 L 640.170105 877.631592 L 640.125671 877.631592 L 640.08136 877.631592 L 640.036987 877.631592 L 639.992615 877.631592 L 639.948242 877.631592 L 639.90387 877.631592 L 639.859497 877.631592 L 639.815125 877.631592 L 639.770752 877.631592 L 639.72644 877.631592 L 639.682007 877.631592 L 639.637634 877.631592 L 639.593262 877.631592 L 639.54895 877.631592 L 639.504578 877.631592 L 639.460144 877.631592 L 639.415833 877.631592 L 639.37146 877.631592 L 639.327087 877.631592 L 639.282715 877.631592 L 639.238342 877.631592 L 639.19397 877.631592 L 639.149597 877.631592 L 639.105225 877.631592 L 639.060913 877.631592 L 639.016479 877.631592 L 638.972107 877.631592 L 638.927734 877.631592 L 638.883423 877.631592 L 638.83905 877.631592 L 638.794617 877.631592 L 638.750305 877.631592 L 638.705933 877.631592 L 638.66156 877.631592 L 638.617188 877.631592 L 638.572815 877.631592 L 638.528442 877.631592 L 638.48407 877.631592 L 638.439697 877.631592 L 638.395386 877.631592 L 638.350952 877.631592 L 638.30658 877.631592 L 638.262207 877.631592 L 638.217896 877.631592 L 638.173523 877.631592 L 638.129089 877.631592 L 638.084778 877.631592 L 638.040405 877.631592 L 637.996033 877.631592 L 637.95166 877.631592 L 637.907288 877.631592 L 637.862915 877.631592 L 637.818542 877.631592 L 637.77417 877.631592 L 637.729858 877.631592 L 637.685425 877.631592 L 637.641052 877.631592 L 637.596741 877.631592 L 637.552368 877.631592 L 637.507996 877.631592 L 637.463562 877.631592 L 637.41925 877.631592 L 637.374878 877.631592 L 637.330505 877.631592 L 637.286133 877.631592 L 637.24176 877.631592 L 637.197388 877.631592 L 637.153015 877.631592 L 637.108643 877.631592 L 637.064331 877.631592 L 637.019897 877.631592 L 636.975525 877.631592 L 636.931213 877.631592 L 636.886841 877.631592 L 636.842468 877.631592 L 636.798035 877.631592 L 636.753723 877.631592 L 636.709351 877.631592 L 636.664978 877.631592 L 636.620605 877.631592 L 636.576233 877.631592 L 636.53186 877.631592 L 636.487488 877.631592 L 636.443115 877.631592 L 636.398804 877.631592 L 636.35437 877.631592 L 636.309998 877.631592 L 636.265686 877.631592 L 636.221313 877.631592 L 636.176941 877.631592 L 636.132507 877.631592 L 636.088196 877.631592 L 636.043823 877.631592 L 635.999451 877.631592 L 635.955078 877.631592 L 635.910706 877.631592 L 635.866333 877.631592 L 635.82196 877.631592 L 635.777588 877.631592 L 635.733276 877.631592 L 635.688843 877.631592 L 635.64447 877.631592 L 635.600159 877.631592 L 635.555786 877.631592 L 635.511414 877.631592 L 635.46698 877.631592 L 635.422668 877.631592 L 635.378296 877.631592 L 635.333923 877.631592 L 635.289551 877.631592 L 635.245178 877.631592 L 635.200806 877.631592 L 635.156433 877.631592 L 635.112061 877.631592 L 635.067749 877.631592 L 635.023315 877.631592 L 634.978943 877.631592 L 634.934631 877.631592 L 634.890259 877.631592 L 634.845886 877.631592 L 634.801453 877.631592 L 634.757141 877.631592 L 634.712769 877.631592 L 634.668396 877.631592 L 634.624023 877.631592 L 634.579651 877.631592 L 634.535278 877.631592 L 634.490906 877.631592 L 634.446533 877.631592 L 634.402222 877.631592 L 634.357788 877.631592 L 634.313416 877.631592 L 634.269104 877.631592 L 634.224731 877.631592 L 634.180359 877.631592 L 634.135925 877.631592 L 634.091614 877.631592 L 634.047241 877.631592 L 634.002869 877.631592 L 633.958496 877.631592 L 633.914124 877.631592 L 633.869751 877.631592 L 633.825378 877.631592 L 633.781067 877.631592 L 633.736694 877.631592 L 633.692261 877.631592 L 633.647888 877.631592 L 633.603577 877.631592 L 633.559204 877.631592 L 633.514832 877.631592 L 633.470398 877.631592 L 633.426086 877.631592 L 633.381714 877.631592 L 633.337341 877.631592 L 633.292969 877.631592 L 633.248596 877.631592 L 633.204224 877.631592 L 633.159851 877.631592 L 633.11554 877.631592 L 633.071167 877.631592 L 633.026733 877.631592 L 632.982361 877.631592 L 632.938049 877.631592 L 632.893677 877.631592 L 632.849304 877.631592 L 632.804871 877.631592 L 632.760559 877.631592 L 632.716187 877.631592 L 632.671814 877.631592 L 632.627441 877.631592 L 632.583069 877.631592 L 632.538696 877.631592 L 632.494324 877.631592 L 632.450012 877.631592 L 632.40564 877.631592 L 632.361206 877.631592 L 632.316833 877.631592 L 632.272522 877.631592 L 632.228149 877.631592 L 632.183777 877.631592 L 632.139343 877.631592 L 632.095032 877.631592 L 632.050659 877.631592 L 632.006287 877.631592 L 631.961914 877.631592 L 631.917542 877.631592 L 631.873169 877.631592 L 631.828796 877.631592 L 631.784485 877.631592 L 631.740112 877.631592 L 631.695679 877.631592 L 631.651306 877.631592 L 631.606995 877.631592 L 631.562622 877.631592 L 631.51825 877.631592 L 631.473877 877.631592 L 631.429504 877.631592 L 631.385132 877.631592 L 631.340759 877.631592 L 631.296387 877.631592 L 631.252014 877.631592 L 631.207642 877.631592 L 631.163269 877.631592 L 631.118958 877.631592 L 631.074585 877.631592 L 631.030151 877.631592 L 630.985779 877.631592 L 630.941467 877.631592 L 630.897095 877.631592 L 630.852722 877.631592 L 630.80835 877.631592 L 630.763977 877.631592 L 630.719604 877.631592 L 630.675232 877.631592 L 630.63092 877.631592 L 630.586487 877.631592 L 630.542114 877.631592 L 630.497742 877.631592 L 630.45343 877.631592 L 630.409058 877.631592 L 630.364624 877.631592 L 630.320251 877.631592 L 630.27594 877.631592 L 630.231567 877.631592 L 630.187195 877.631592 L 630.142822 877.631592 L 630.09845 877.631592 L 630.054077 877.631592 L 630.009705 877.631592 L 629.965393 877.631592 L 629.920959 877.631592 L 629.876587 877.631592 L 629.832214 877.631592 L 629.787903 877.631592 L 629.74353 877.631592 L 629.699097 877.631592 L 629.654724 877.631592 L 629.610413 877.631592 L 629.56604 877.631592 L 629.521667 877.631592 L 629.477295 877.631592 L 629.432922 877.631592 L 629.38855 877.631592 L 629.344177 877.631592 L 629.299866 877.631592 L 629.255432 877.631592 L 629.21106 877.631592 L 629.166687 877.631592 L 629.122375 877.631592 L 629.078003 877.631592 L 629.033569 877.631592 L 628.989197 877.631592 L 628.944885 877.631592 L 628.900513 877.631592 L 628.85614 877.631592 L 628.811768 877.631592 L 628.767395 877.631592 L 628.723022 877.631592 L 628.67865 877.631592 L 628.634338 877.631592 L 628.589905 877.631592 L 628.545532 877.631592 L 628.50116 877.631592 L 628.456848 877.631592 L 628.412476 877.631592 L 628.368042 877.631592 L 628.323669 877.631592 L 628.279358 877.631592 L 628.234985 877.631592 L 628.190613 877.631592 L 628.14624 877.631592 L 628.101868 877.631592 L 628.057495 877.631592 L 628.013123 877.631592 L 627.968811 877.631592 L 627.924377 877.631592 L 627.880005 877.631592 L 627.835632 877.631592 L 627.791321 877.631592 L 627.746948 877.631592 L 627.702515 877.631592 L 627.658203 877.631592 L 627.613831 877.631592 L 627.569458 877.631592 L 627.525085 877.631592 L 627.480713 877.631592 L 627.43634 877.631592 L 627.391968 877.631592 L 627.347595 877.631592 L 627.303284 877.631592 L 627.25885 877.631592 L 627.214478 877.631592 L 627.170105 877.631592 L 627.125793 877.631592 L 627.081421 877.631592 L 627.036987 877.631592 L 626.992676 877.631592 L 626.948303 877.631592 L 626.903931 877.631592 L 626.859558 877.631592 L 626.815186 877.631592 L 626.770813 877.631592 L 626.72644 877.631592 L 626.682068 877.631592 L 626.637756 877.631592 L 626.593323 877.631592 L 626.54895 877.631592 L 626.504578 877.631592 L 626.460266 877.631592 L 626.415894 877.631592 L 626.37146 877.631592 L 626.327148 877.631592 L 626.282776 877.631592 L 626.238403 877.631592 L 626.194031 877.631592 L 626.149658 877.631592 L 626.105286 877.631592 L 626.060913 877.631592 L 626.016541 877.631592 L 625.972229 877.631592 L 625.927795 877.631592 L 625.883423 877.631592 L 625.83905 877.631592 L 625.794739 877.631592 L 625.750366 877.631592 L 625.705933 877.631592 L 625.661621 877.631592 L 625.617249 877.631592 L 625.572876 877.631592 L 625.528503 877.631592 L 625.484131 877.631592 L 625.439758 877.631592 L 625.395386 877.631592 L 625.351013 877.631592 L 625.306702 877.631592 L 625.262268 877.631592 L 625.217896 877.631592 L 625.173523 877.631592 L 625.129211 877.631592 L 625.084839 877.631592 L 625.040405 877.631592 L 624.996094 877.631592 L 624.951721 877.631592 L 624.907349 877.631592 L 624.862976 877.631592 L 624.818604 877.631592 L 624.774231 877.631592 L 624.729858 877.631592 L 624.685486 877.631592 L 624.641174 877.631592 L 624.596741 877.631592 L 624.552368 877.631592 L 624.508057 877.631592 L 624.463684 877.631592 L 624.419312 877.631592 L 624.374878 877.631592 L 624.330566 877.631592 L 624.286194 877.631592 L 624.241821 877.631592 L 624.197449 877.631592 L 624.153076 877.631592 L 624.108704 877.631592 L 624.064331 877.631592 L 624.019958 877.631592 L 623.975647 877.631592 L 623.931213 877.631592 L 623.886841 877.631592 L 623.842529 877.631592 L 623.798157 877.631592 L 623.753784 877.631592 L 623.709351 877.631592 L 623.665039 877.631592 L 623.620667 877.631592 L 623.576294 877.631592 L 623.531921 877.631592 L 623.487549 877.631592 L 623.443176 877.631592 L 623.398804 877.631592 L 623.354431 877.631592 L 623.31012 877.631592 L 623.265686 877.631592 L 623.221313 877.631592 L 623.177002 877.631592 L 623.132629 877.631592 L 623.088257 877.631592 L 623.043823 877.631592 L 622.999512 877.631592 L 622.955139 877.631592 L 622.910767 877.631592 L 622.866394 877.631592 L 622.822021 877.631592 L 622.777649 877.631592 L 622.733276 877.631592 L 622.688904 877.631592 L 622.644592 877.631592 L 622.600159 877.631592 L 622.555786 877.631592 L 622.511475 877.631592 L 622.467102 877.631592 L 622.422729 877.631592 L 622.378296 877.631592 L 622.333984 877.631592 L 622.289612 877.631592 L 622.245239 877.631592 L 622.200867 877.631592 L 622.156494 877.631592 L 622.112122 877.631592 L 622.067749 877.631592 L 622.023376 877.631592 L 621.979065 877.631592 L 621.934631 877.631592 L 621.890259 877.631592 L 621.845947 877.631592 L 621.801575 877.631592 L 621.757202 877.631592 L 621.712769 877.631592 L 621.668457 877.631592 L 621.624084 877.631592 L 621.579712 877.631592 L 621.535339 877.631592 L 621.490967 877.631592 L 621.446594 877.631592 L 621.402222 877.631592 L 621.357849 877.631592 L 621.313538 877.631592 L 621.269104 877.631592 L 621.224731 877.631592 L 621.18042 877.631592 L 621.136047 877.631592 L 621.091675 877.631592 L 621.047241 877.631592 L 621.00293 877.631592 L 620.958557 877.631592 L 620.914185 877.631592 L 620.869812 877.631592 L 620.825439 877.631592 L 620.781067 877.631592 L 620.736694 877.631592 L 620.692383 877.631592 L 620.64801 877.631592 L 620.603577 877.631592 L 620.559204 877.631592 L 620.514893 877.631592 L 620.47052 877.631592 L 620.426147 877.631592 L 620.381714 877.631592 L 620.337402 877.631592 L 620.29303 877.631592 L 620.248657 877.631592 L 620.204285 877.631592 L 620.159912 877.631592 L 620.11554 877.631592 L 620.071167 877.631592 L 620.026855 877.631592 L 619.982483 877.631592 L 619.938049 877.631592 L 619.893677 877.631592 L 619.849365 877.631592 L 619.804993 877.631592 L 619.76062 877.631592 L 619.716187 877.631592 L 619.671875 877.631592 L 619.627502 877.631592 L 619.58313 877.631592 L 619.538757 877.631592 L 619.494385 877.631592 L 619.450012 877.631592 L 619.40564 877.631592 L 619.361328 877.631592 L 619.316956 877.631592 L 619.272522 877.631592 L 619.228149 877.631592 L 619.183838 877.631592 L 619.139465 877.631592 L 619.095093 877.631592 L 619.050659 877.631592 L 619.006348 877.631592 L 618.961975 877.631592 L 618.917603 877.631592 L 618.87323 877.631592 L 618.828857 877.631592 L 618.784485 877.631592 L 618.740112 877.631592 L 618.695801 877.631592 L 618.651428 877.631592 L 618.606995 877.631592 L 618.562622 877.631592 L 618.518311 877.631592 L 618.473938 877.631592 L 618.429565 877.631592 L 618.385193 877.631592 L 618.34082 877.631592 L 618.296448 877.631592 L 618.252075 877.631592 L 618.207703 877.631592 L 618.16333 877.631592 L 618.118958 877.631592 L 618.074585 877.631592 L 618.030273 877.631592 L 617.985901 877.631592 L 617.941467 877.631592 L 617.897095 877.631592 L 617.852783 877.631592 L 617.808411 877.631592 L 617.764038 877.631592 L 617.719666 877.631592 L 617.675293 877.631592 L 617.63092 877.631592 L 617.586548 877.631592 L 617.542236 877.631592 L 617.497803 877.631592 L 617.45343 877.631592 L 617.409058 877.631592 L 617.364746 877.631592 L 617.320374 877.631592 L 617.27594 877.631592 L 617.231567 877.631592 L 617.187256 877.631592 L 617.142883 877.631592 L 617.098511 877.631592 L 617.054138 877.631592 L 617.009766 877.631592 L 616.965393 877.631592 L 616.921021 877.631592 L 616.876709 877.631592 L 616.832275 877.631592 L 616.787903 877.631592 L 616.74353 877.631592 L 616.699219 877.631592 L 616.654846 877.631592 L 616.610413 877.631592 L 616.56604 877.631592 L 616.521729 877.631592 L 616.477356 877.631592 L 616.432983 877.631592 L 616.388611 877.631592 L 616.344238 877.631592 L 616.299866 877.631592 L 616.255493 877.631592 L 616.211182 877.631592 L 616.166748 877.631592 L 616.122375 877.631592 L 616.078003 877.631592 L 616.033691 877.631592 L 615.989319 877.631592 L 615.944885 877.631592 L 615.900513 877.631592 L 615.856201 877.631592 L 615.811829 877.631592 L 615.767456 877.631592 L 615.723083 877.631592 L 615.678711 877.631592 L 615.634338 877.631592 L 615.589966 877.631592 L 615.545654 877.631592 L 615.501221 877.631592 L 615.456848 877.631592 L 615.412476 877.631592 L 615.368164 877.631592 L 615.323792 877.631592 L 615.279358 877.631592 L 615.234985 877.631592 L 615.190674 877.631592 L 615.146301 877.631592 L 615.101929 877.631592 L 615.057556 877.631592 L 615.013184 877.631592 L 614.968811 877.631592 L 614.924438 877.631592 L 614.880127 877.631592 L 614.835693 877.631592 L 614.791321 877.631592 L 614.746948 877.631592 L 614.702637 877.631592 L 614.658264 877.631592 L 614.613831 877.631592 L 614.569519 877.631592 L 614.525146 877.631592 L 614.480774 877.631592 L 614.436401 877.631592 L 614.392029 877.631592 L 614.347656 877.631592 L 614.303284 877.631592 L 614.258911 877.631592 L 614.2146 877.631592 L 614.170166 877.631592 L 614.125793 877.631592 L 614.081421 877.631592 L 614.037109 877.631592 L 613.992737 877.631592 L 613.948303 877.631592 L 613.903992 877.631592 L 613.859619 877.631592 L 613.815247 877.631592 L 613.770874 877.631592 L 613.726501 877.631592 L 613.682129 877.631592 L 613.637756 877.631592 L 613.593384 877.631592 L 613.549072 877.631592 L 613.504639 877.631592 L 613.460266 877.631592 L 613.415894 877.631592 L 613.371582 877.631592 L 613.327209 877.631592 L 613.282776 877.631592 L 613.238464 877.631592 L 613.194092 877.631592 L 613.149719 877.631592 L 613.105347 877.631592 L 613.060974 877.631592 L 613.016602 877.631592 L 612.972229 877.631592 L 612.927856 877.631592 L 612.883545 877.631592 L 612.839111 877.631592 L 612.794739 877.631592 L 612.750366 877.631592 L 612.706055 877.631592 L 612.661682 877.631592 L 612.617249 877.631592 L 612.572937 877.631592 L 612.528564 877.631592 L 612.484192 877.631592 L 612.439819 877.631592 L 612.395447 877.631592 L 612.351074 877.631592 L 612.306702 877.631592 L 612.262329 877.631592 L 612.218018 877.631592 L 612.173584 877.631592 L 612.129211 877.631592 L 612.084839 877.631592 L 612.040527 877.631592 L 611.996155 877.631592 L 611.951721 877.631592 L 611.90741 877.631592 L 611.863037 877.631592 L 611.818665 877.631592 L 611.774292 877.631592 L 611.729919 877.631592 L 611.685547 877.631592 L 611.641174 877.631592 L 611.596802 877.631592 L 611.55249 877.631592 L 611.508057 877.631592 L 611.463684 877.631592 L 611.419373 877.631592 L 611.375 877.631592 L 611.330627 877.631592 L 611.286194 877.631592 L 611.241882 877.631592 L 611.19751 877.631592 L 611.153137 877.631592 L 611.108765 877.631592 L 611.064392 877.631592 L 611.02002 877.631592 L 610.975647 877.631592 L 610.931274 877.631592 L 610.886963 877.631592 L 610.842529 877.631592 L 610.798157 877.631592 L 610.753845 877.631592 L 610.709473 877.631592 L 610.6651 877.631592 L 610.620667 877.631592 L 610.576355 877.631592 L 610.531982 877.631592 L 610.48761 877.631592 L 610.443237 877.631592 L 610.398865 877.631592 L 610.354492 877.631592 L 610.31012 877.631592 L 610.265747 877.631592 L 610.221436 877.631592 L 610.177002 877.631592 L 610.132629 877.631592 L 610.088318 877.631592 L 610.043945 877.631592 L 609.999573 877.631592 L 609.955139 877.631592 L 609.910828 877.631592 L 609.866455 877.631592 L 609.822083 877.631592 L 609.77771 877.631592 L 609.733337 877.631592 L 609.688965 877.631592 L 609.644592 877.631592 L 609.60022 877.631592 L 609.555908 877.631592 L 609.511475 877.631592 L 609.467102 877.631592 L 609.422791 877.631592 L 609.378418 877.631592 L 609.334045 877.631592 L 609.289612 877.631592 L 609.2453 877.631592 L 609.200928 877.631592 L 609.156555 877.631592 L 609.112183 877.631592 L 609.06781 877.631592 L 609.023438 877.631592 L 608.979065 877.631592 L 608.934692 877.631592 L 608.890381 877.631592 L 608.845947 877.631592 L 608.801575 877.631592 L 608.757263 877.631592 L 608.712891 877.631592 L 608.668518 877.631592 L 608.624084 877.631592 L 608.579773 877.631592 L 608.5354 877.631592 L 608.491028 877.631592 L 608.446655 877.631592 L 608.402283 877.631592 L 608.35791 877.631592 L 608.313538 877.631592 L 608.269165 877.631592 L 608.224854 877.631592 L 608.18042 877.631592 L 608.136047 877.631592 L 608.091736 877.631592 L 608.047363 877.631592 L 608.002991 877.631592 L 607.958557 877.631592 L 607.914246 877.631592 L 607.869873 877.631592 L 607.8255 877.631592 L 607.781128 877.631592 L 607.736755 877.631592 L 607.692383 877.631592 L 607.64801 877.631592 L 607.603699 877.631592 L 607.559326 877.631592 L 607.514893 877.631592 L 607.47052 877.631592 L 607.426208 877.631592 L 607.381836 877.631592 L 607.337463 877.631592 L 607.29303 877.631592 L 607.248718 877.631592 L 607.204346 877.631592 L 607.159973 877.631592 L 607.115601 877.631592 L 607.071228 877.631592 L 607.026855 877.631592 L 606.982483 877.631592 L 606.938171 877.631592 L 606.893799 877.631592 L 606.849365 877.631592 L 606.804993 877.631592 L 606.760681 877.631592 L 606.716309 877.631592 L 606.671936 877.631592 L 606.627502 877.631592 L 606.583191 877.631592 L 606.538818 877.631592 L 606.494446 877.631592 L 606.450073 877.631592 L 606.405701 877.631592 L 606.361328 877.631592 L 606.316956 877.631592 L 606.272644 877.631592 L 606.228271 877.631592 L 606.183838 877.631592 L 606.139465 877.631592 L 606.095154 877.631592 L 606.050781 877.631592 L 606.006409 877.631592 L 605.961975 877.631592 L 605.917664 877.631592 L 605.873291 877.631592 L 605.828918 877.631592 L 605.784546 877.631592 L 605.740173 877.631592 L 605.695801 877.631592 L 605.651428 877.631592 L 605.607117 877.631592 L 605.562744 877.631592 L 605.518311 877.631592 L 605.473938 877.631592 L 605.429626 877.631592 L 605.385254 877.631592 L 605.340881 877.631592 L 605.296509 877.631592 L 605.252136 877.631592 L 605.207764 877.631592 L 605.163391 877.631592 L 605.119019 877.631592 L 605.074646 877.631592 L 605.030273 877.631592 L 604.985901 877.631592 L 604.941589 877.631592 L 604.897217 877.631592 L 604.852783 877.631592 L 604.808411 877.631592 L 604.764099 877.631592 L 604.719727 877.631592 L 604.675354 877.631592 L 604.630981 877.631592 L 604.586609 877.631592 L 604.542236 877.631592 L 604.497864 877.631592 L 604.453491 877.631592 L 604.409119 877.631592 L 604.364746 877.631592 L 604.320374 877.631592 L 604.276062 877.631592 L 604.231689 877.631592 L 604.187256 877.631592 L 604.142883 877.631592 L 604.098572 877.631592 L 604.054199 877.631592 L 604.009827 877.631592 L 603.965454 877.631592 L 603.921082 877.631592 L 603.876709 877.631592 L 603.832336 877.631592 L 603.788025 877.631592 L 603.743591 877.631592 L 603.699219 877.631592 L 603.654846 877.631592 L 603.610535 877.631592 L 603.566162 877.631592 L 603.521729 877.631592 L 603.477356 877.631592 L 603.433044 877.631592 L 603.388672 877.631592 L 603.344299 877.631592 L 603.299927 877.631592 L 603.255554 877.631592 L 603.211182 877.631592 L 603.166809 877.631592 L 603.122498 877.631592 L 603.078064 877.631592 L 603.033691 877.631592 L 602.989319 877.631592 L 602.945007 877.631592 L 602.900635 877.631592 L 602.856201 877.631592 L 602.811829 877.631592 L 602.767517 877.631592 L 602.723145 877.631592 L 602.678772 877.631592 L 602.634399 877.631592 L 602.590027 877.631592 L 602.545654 877.631592 L 602.501282 877.631592 L 602.45697 877.631592 L 602.412537 877.631592 L 602.368164 877.631592 L 602.323792 877.631592 L 602.27948 877.631592 L 602.235107 877.631592 L 602.190674 877.631592 L 602.146301 877.631592 L 602.10199 877.631592 L 602.057617 877.631592 L 602.013245 877.631592 L 601.968872 877.631592 L 601.9245 877.631592 L 601.880127 877.631592 L 601.835754 877.631592 L 601.791443 877.631592 L 601.747009 877.631592 L 601.710693 877.631592 L 601.689087 877.631592 L 601.679443 877.631592 L 601.687866 877.631592 L 601.702637 877.631592 L 601.722778 877.631592 L 601.747375 877.631592 L 601.775574 877.631592 L 601.806702 877.631592 L 601.84021 877.631592 L 601.875671 877.631592 L 601.912781 877.631592 L 601.951233 877.631592 L 601.990723 877.631592 L 602.031128 877.631592 L 602.072266 877.631592 L 602.113953 877.631592 L 602.156128 877.631592 L 602.19873 877.631592 L 602.241638 877.631592 L 602.276733 877.631592 L 602.305481 877.631592 L 602.328979 877.631592 L 602.348206 877.631592 L 602.363953 877.631592 L 602.37677 877.631592 L 602.387329 877.631592 L 602.395935 877.631592 L 602.403015 877.631592 L 602.408813 877.631592 Z"/>
    </g>
</svg>
